<?xml version="1.0" encoding="UTF-8" ?>
<!DOCTYPE svg PUBLIC "-//W3C//DTD SVG 1.1//EN" "http://www.w3.org/Graphics/SVG/1.1/DTD/svg11.dtd">
<svg width="256pt" height="256pt" viewBox="0 0 256 256" version="1.1" xmlns="http://www.w3.org/2000/svg">
<g id="#569daaff">
<path fill="#569daa" opacity="1.00" d=" M 113.44 2.77 C 140.38 -0.34 168.30 5.54 191.60 19.44 C 215.49 33.50 234.45 55.73 244.55 81.54 C 253.72 104.74 255.70 130.69 250.20 155.01 C 243.78 184.15 226.43 210.68 202.42 228.37 C 182.43 243.26 157.91 251.93 133.01 252.91 C 105.93 254.14 78.52 246.21 56.28 230.70 C 30.37 212.82 11.57 184.93 5.04 154.11 C -0.45 128.64 2.09 101.46 12.54 77.57 C 24.66 49.43 47.51 26.11 75.38 13.39 C 87.40 7.85 100.30 4.28 113.44 2.77 M 112.38 12.49 C 85.09 15.92 59.18 29.23 40.57 49.49 C 21.65 69.81 10.44 97.18 10.02 124.98 C 9.29 152.75 19.31 180.56 37.38 201.63 C 55.64 223.25 81.96 237.81 109.96 241.89 C 135.67 245.78 162.64 241.06 185.37 228.40 C 210.17 214.78 229.78 191.90 239.09 165.16 C 247.69 140.78 247.64 113.46 238.93 89.12 C 229.99 63.77 211.79 41.93 188.70 28.23 C 165.98 14.59 138.63 9.07 112.38 12.49 Z" />
</g>
<g id="#87cbb9ff">
<path fill="#87cbb9" opacity="1.00" d=" M 112.38 12.49 C 138.63 9.07 165.98 14.59 188.70 28.23 C 211.79 41.93 229.99 63.77 238.93 89.12 C 247.64 113.46 247.69 140.78 239.09 165.16 C 229.78 191.90 210.17 214.78 185.37 228.40 C 162.64 241.06 135.67 245.78 109.96 241.89 C 81.96 237.81 55.64 223.25 37.38 201.63 C 19.31 180.56 9.29 152.75 10.02 124.98 C 10.44 97.18 21.65 69.81 40.57 49.49 C 59.18 29.23 85.09 15.92 112.38 12.49 M 25.07 105.72 C 19.61 130.73 23.97 157.74 37.22 179.66 C 50.27 201.63 71.70 218.38 96.11 225.88 C 119.41 233.14 145.21 232.10 167.81 222.86 C 192.73 212.82 213.49 192.82 224.20 168.14 C 232.78 148.65 234.91 126.45 230.39 105.65 C 222.10 63.66 184.51 29.89 142.24 24.69 C 135.19 23.71 128.06 24.13 120.97 24.08 C 75.66 25.80 33.83 61.16 25.07 105.72 Z" />
</g>
<g id="#fff4f4ff">
<path fill="#fff4f4" opacity="1.00" d=" M 25.07 105.72 C 33.83 61.16 75.66 25.80 120.97 24.08 C 128.06 24.13 135.19 23.71 142.24 24.69 C 184.51 29.89 222.10 63.66 230.39 105.65 C 161.95 105.62 93.51 105.82 25.07 105.72 M 73.09 64.13 C 71.46 70.15 69.88 76.19 67.62 82.02 C 65.73 76.25 65.19 70.17 63.54 64.36 C 63.18 62.02 60.22 60.72 58.45 62.48 C 56.09 65.23 56.04 69.13 55.21 72.51 C 54.23 78.77 51.12 84.64 51.16 91.06 C 51.02 94.15 56.04 94.72 56.66 91.69 C 57.91 86.62 58.79 81.45 60.26 76.43 C 61.61 81.46 62.63 86.63 64.58 91.48 C 65.54 93.98 69.25 93.56 70.15 91.22 C 72.55 86.35 73.62 80.96 75.87 76.02 C 77.13 81.43 77.76 87.05 79.77 92.25 C 80.75 95.13 85.88 94.02 85.19 90.99 C 83.80 84.66 81.66 78.48 80.94 72.01 C 80.24 68.61 80.46 64.66 78.13 61.85 C 76.25 60.15 73.42 61.88 73.09 64.13 M 138.95 62.12 C 133.16 66.57 129.62 73.77 129.07 81.01 C 128.79 85.10 129.74 90.10 133.73 92.16 C 139.10 94.70 146.01 93.44 150.22 89.26 C 153.22 86.48 154.50 82.46 156.02 78.79 C 157.05 76.90 154.95 74.91 153.04 75.29 C 147.99 75.42 142.50 75.35 137.99 77.94 C 135.68 79.07 136.56 82.72 139.03 82.96 C 142.33 82.22 145.56 81.13 148.97 80.89 C 147.30 86.15 141.06 90.10 135.87 87.07 C 132.68 80.10 136.50 71.70 141.88 66.87 C 144.34 64.38 147.49 67.13 150.11 67.88 C 152.36 68.95 154.75 65.08 152.52 63.64 C 148.77 60.82 143.07 58.97 138.95 62.12 M 94.44 62.45 C 92.78 63.04 91.86 65.30 93.05 66.72 C 94.41 68.94 98.30 68.38 98.83 65.78 C 99.46 63.37 96.55 61.42 94.44 62.45 M 160.59 63.02 C 160.52 66.12 162.19 68.94 163.01 71.88 C 165.28 78.04 166.33 84.55 168.03 90.87 C 168.28 94.25 174.29 94.37 174.49 90.94 C 175.38 85.27 178.61 80.39 180.31 74.98 C 181.49 80.67 182.02 86.56 184.00 92.06 C 184.41 93.75 186.34 94.45 187.92 94.18 C 190.05 93.60 190.57 91.19 191.44 89.47 C 194.79 80.99 199.02 72.84 201.43 64.02 C 201.52 60.69 196.40 60.67 195.65 63.62 C 193.34 70.72 190.79 77.75 187.83 84.61 C 186.05 78.06 185.41 71.29 184.07 64.66 C 183.69 61.92 179.97 60.92 178.58 63.48 C 174.97 69.02 174.22 75.84 171.44 81.78 C 169.87 75.71 168.73 69.47 166.33 63.66 C 165.66 61.06 161.82 60.62 160.59 63.02 M 105.60 71.64 C 105.38 77.09 105.20 82.55 104.98 88.00 C 105.03 90.13 104.92 93.93 108.02 93.68 C 111.14 93.85 110.80 90.09 111.01 87.98 C 111.08 83.23 112.64 76.89 118.03 75.76 C 118.04 81.18 117.62 86.72 119.03 92.01 C 119.57 94.83 124.74 93.91 124.30 91.07 C 124.01 87.05 123.40 83.06 123.46 79.02 C 123.42 76.12 122.93 72.43 119.90 71.14 C 116.88 69.75 113.75 71.38 111.32 73.16 C 110.94 70.34 107.12 68.84 105.60 71.64 M 93.46 71.61 C 92.24 72.16 92.45 73.76 92.26 74.85 C 91.99 80.22 91.51 85.65 92.24 91.00 C 92.98 93.70 97.86 92.96 97.50 90.04 C 97.42 84.67 97.57 79.29 97.78 73.93 C 98.10 71.66 95.17 70.38 93.46 71.61 Z" />
</g>
<g id="#577d86ff">
<path fill="#577d86" opacity="1.00" d=" M 73.09 64.13 C 73.42 61.88 76.25 60.15 78.13 61.85 C 80.46 64.66 80.24 68.61 80.94 72.01 C 81.66 78.48 83.80 84.66 85.19 90.99 C 85.88 94.02 80.75 95.13 79.77 92.25 C 77.76 87.05 77.13 81.43 75.87 76.02 C 73.62 80.96 72.55 86.35 70.15 91.22 C 69.25 93.56 65.54 93.98 64.58 91.48 C 62.63 86.63 61.61 81.46 60.26 76.43 C 58.79 81.45 57.91 86.62 56.66 91.69 C 56.04 94.72 51.02 94.15 51.16 91.06 C 51.12 84.64 54.23 78.77 55.21 72.51 C 56.04 69.13 56.09 65.23 58.45 62.48 C 60.22 60.72 63.18 62.02 63.54 64.36 C 65.19 70.17 65.73 76.25 67.62 82.02 C 69.88 76.19 71.46 70.15 73.09 64.13 Z" />
<path fill="#577d86" opacity="1.00" d=" M 138.95 62.12 C 143.07 58.97 148.77 60.82 152.52 63.64 C 154.75 65.08 152.36 68.95 150.11 67.88 C 147.49 67.13 144.34 64.38 141.88 66.87 C 136.50 71.70 132.68 80.10 135.87 87.07 C 141.06 90.10 147.30 86.15 148.97 80.89 C 145.56 81.13 142.33 82.22 139.03 82.96 C 136.56 82.72 135.68 79.07 137.99 77.94 C 142.50 75.35 147.99 75.42 153.04 75.29 C 154.95 74.91 157.05 76.90 156.02 78.79 C 154.50 82.46 153.22 86.48 150.22 89.26 C 146.01 93.44 139.10 94.70 133.73 92.16 C 129.74 90.10 128.79 85.10 129.07 81.01 C 129.62 73.77 133.16 66.57 138.95 62.12 Z" />
<path fill="#577d86" opacity="1.00" d=" M 94.44 62.45 C 96.55 61.42 99.46 63.37 98.83 65.78 C 98.30 68.38 94.41 68.94 93.05 66.72 C 91.86 65.30 92.78 63.04 94.44 62.45 Z" />
<path fill="#577d86" opacity="1.00" d=" M 160.59 63.02 C 161.82 60.62 165.66 61.06 166.33 63.66 C 168.73 69.47 169.87 75.71 171.44 81.78 C 174.22 75.84 174.97 69.02 178.58 63.48 C 179.97 60.92 183.69 61.92 184.07 64.66 C 185.41 71.29 186.05 78.06 187.83 84.61 C 190.79 77.75 193.34 70.72 195.65 63.62 C 196.40 60.67 201.52 60.69 201.43 64.02 C 199.02 72.84 194.79 80.99 191.44 89.47 C 190.57 91.19 190.05 93.60 187.92 94.18 C 186.34 94.45 184.41 93.75 184.00 92.06 C 182.02 86.56 181.49 80.67 180.31 74.98 C 178.61 80.39 175.38 85.27 174.49 90.94 C 174.29 94.37 168.28 94.25 168.03 90.87 C 166.33 84.55 165.28 78.04 163.01 71.88 C 162.19 68.94 160.52 66.12 160.59 63.02 Z" />
<path fill="#577d86" opacity="1.00" d=" M 105.60 71.64 C 107.12 68.84 110.94 70.34 111.32 73.16 C 113.75 71.38 116.88 69.75 119.90 71.14 C 122.93 72.43 123.42 76.12 123.46 79.02 C 123.40 83.06 124.01 87.05 124.30 91.07 C 124.74 93.91 119.57 94.83 119.03 92.01 C 117.62 86.72 118.04 81.18 118.03 75.76 C 112.64 76.89 111.08 83.23 111.01 87.98 C 110.80 90.09 111.14 93.85 108.02 93.68 C 104.92 93.93 105.03 90.13 104.98 88.00 C 105.20 82.55 105.38 77.09 105.60 71.64 Z" />
<path fill="#577d86" opacity="1.00" d=" M 93.46 71.61 C 95.17 70.38 98.10 71.66 97.78 73.93 C 97.57 79.29 97.42 84.67 97.50 90.04 C 97.86 92.96 92.98 93.70 92.24 91.00 C 91.51 85.65 91.99 80.22 92.26 74.85 C 92.45 73.76 92.24 72.16 93.46 71.61 Z" />
<path fill="#577d86" opacity="1.00" d=" M 144.39 119.30 C 146.56 117.30 150.41 121.01 148.11 123.09 C 145.49 126.17 142.21 128.63 139.68 131.80 C 143.86 131.19 148.72 130.89 152.09 133.94 C 157.81 139.30 155.84 150.49 148.46 153.41 C 143.85 155.21 137.69 154.72 134.51 150.54 C 131.44 146.41 131.33 140.82 132.26 135.96 C 133.68 128.96 138.84 123.44 144.39 119.30 M 137.66 139.00 C 137.97 141.84 137.60 145.11 139.57 147.45 C 142.08 150.17 147.36 149.21 148.67 145.70 C 149.69 143.19 149.89 139.32 147.04 137.94 C 143.96 136.40 140.51 137.52 137.66 139.00 Z" />
<path fill="#577d86" opacity="1.00" d=" M 171.15 121.07 C 172.68 118.66 176.82 117.71 178.61 120.30 C 179.34 126.07 178.69 131.92 178.92 137.72 C 180.85 138.29 184.19 138.11 183.83 141.02 C 183.94 143.71 180.82 143.61 178.98 144.18 C 178.93 146.70 179.09 149.26 178.65 151.75 C 177.80 153.97 174.07 153.91 173.25 151.72 C 172.56 149.17 172.87 146.48 172.81 143.88 C 168.22 143.70 163.48 144.42 158.99 143.20 C 156.99 142.82 156.55 140.35 157.91 139.03 C 162.55 133.21 166.65 126.99 171.15 121.07 M 166.33 137.98 C 168.50 137.98 170.67 137.98 172.84 137.98 C 172.84 134.76 172.84 131.54 172.83 128.33 C 170.69 131.56 168.51 134.77 166.33 137.98 Z" />
<path fill="#577d86" opacity="1.00" d=" M 132.63 164.52 C 133.43 162.87 136.03 162.48 137.15 164.01 C 137.55 167.88 137.22 171.78 137.23 175.66 C 140.79 174.11 145.06 173.27 148.59 175.37 C 156.09 179.54 156.55 191.69 149.43 196.47 C 145.26 199.79 139.78 198.16 134.94 198.18 C 133.62 198.35 131.64 197.64 131.87 196.00 C 131.79 187.66 131.96 179.32 131.84 170.98 C 131.93 168.83 131.64 166.51 132.63 164.52 M 137.27 182.18 C 137.28 185.42 137.28 188.67 137.28 191.91 C 139.90 192.56 142.80 193.71 145.39 192.35 C 149.85 190.12 149.95 182.75 145.70 180.29 C 142.78 178.68 139.81 180.86 137.27 182.18 Z" />
<path fill="#577d86" opacity="1.00" d=" M 161.38 165.44 C 163.36 163.93 166.85 165.39 166.82 167.99 C 166.97 170.70 163.36 172.25 161.31 170.64 C 159.43 169.54 159.47 166.50 161.38 165.44 Z" />
<path fill="#577d86" opacity="1.00" d=" M 175.63 174.13 C 175.68 171.71 174.62 167.58 178.11 167.18 C 181.92 166.75 181.70 171.54 181.96 174.08 C 183.83 174.17 185.75 174.00 187.58 174.47 C 189.73 175.22 189.66 178.63 187.64 179.52 C 185.75 179.95 183.80 179.85 181.88 179.96 C 181.87 185.62 182.91 191.37 181.85 196.97 C 181.15 199.99 175.91 199.28 176.19 196.15 C 176.13 190.88 176.21 185.60 175.82 180.34 C 173.99 180.09 172.13 179.98 170.36 179.48 C 168.15 178.52 168.70 174.62 171.08 174.26 C 172.59 174.11 174.11 174.12 175.63 174.13 Z" />
<path fill="#577d86" opacity="1.00" d=" M 160.46 175.46 C 162.29 173.36 166.26 175.14 165.63 177.98 C 165.29 183.97 165.34 189.98 165.26 195.98 C 165.22 199.25 159.49 199.18 159.46 195.91 C 159.02 189.32 159.14 182.65 159.94 176.10 L 160.46 175.46 Z" />
</g>
<g id="#b9edddff">
<path fill="#b9eddd" opacity="1.00" d=" M 25.07 105.72 C 93.51 105.82 161.95 105.62 230.39 105.65 C 234.91 126.45 232.78 148.65 224.20 168.14 C 213.49 192.82 192.73 212.82 167.81 222.86 C 145.21 232.10 119.41 233.14 96.11 225.88 C 71.70 218.38 50.27 201.63 37.22 179.66 C 23.97 157.74 19.61 130.73 25.07 105.72 M 144.39 119.30 C 138.84 123.44 133.68 128.96 132.26 135.96 C 131.33 140.82 131.44 146.41 134.51 150.54 C 137.69 154.72 143.85 155.21 148.46 153.41 C 155.84 150.49 157.81 139.30 152.09 133.94 C 148.72 130.89 143.86 131.19 139.68 131.80 C 142.21 128.63 145.49 126.17 148.11 123.09 C 150.41 121.01 146.56 117.30 144.39 119.30 M 171.15 121.07 C 166.65 126.99 162.55 133.21 157.91 139.03 C 156.55 140.35 156.99 142.82 158.99 143.20 C 163.48 144.42 168.22 143.70 172.81 143.88 C 172.87 146.48 172.56 149.17 173.25 151.72 C 174.07 153.91 177.80 153.97 178.65 151.75 C 179.09 149.26 178.93 146.70 178.98 144.18 C 180.82 143.61 183.94 143.71 183.83 141.02 C 184.19 138.11 180.85 138.29 178.92 137.72 C 178.69 131.92 179.34 126.07 178.61 120.30 C 176.82 117.71 172.68 118.66 171.15 121.07 M 53.00 143.92 C 52.45 148.41 52.80 152.96 52.73 157.47 C 62.98 157.48 73.23 157.50 83.48 157.47 C 83.51 147.21 83.50 136.97 83.49 126.72 C 78.97 126.79 74.42 126.44 69.92 126.99 C 61.41 128.20 54.20 135.42 53.00 143.92 M 86.72 126.73 C 86.72 136.96 86.70 147.19 86.73 157.43 C 96.64 157.46 106.56 157.44 116.47 157.44 C 116.40 152.97 116.75 148.48 116.21 144.03 C 115.08 135.73 108.23 128.62 100.00 127.13 C 95.61 126.40 91.14 126.79 86.72 126.73 M 52.75 160.62 C 52.78 164.77 52.50 168.94 53.00 173.07 C 54.11 181.69 61.43 189.01 70.03 190.20 C 74.50 190.73 79.02 190.39 83.51 190.46 C 83.53 180.51 83.53 170.56 83.51 160.62 C 73.26 160.62 63.00 160.61 52.75 160.62 M 86.72 160.70 C 86.69 170.61 86.71 180.52 86.71 190.44 C 90.81 190.39 94.93 190.68 99.01 190.20 C 107.35 189.12 114.53 182.29 116.05 174.02 C 116.79 169.62 116.37 165.13 116.45 160.69 C 106.54 160.69 96.63 160.67 86.72 160.70 M 132.63 164.52 C 131.64 166.51 131.93 168.83 131.84 170.98 C 131.96 179.32 131.79 187.66 131.87 196.00 C 131.64 197.64 133.62 198.35 134.94 198.18 C 139.78 198.16 145.26 199.79 149.43 196.47 C 156.55 191.69 156.09 179.54 148.59 175.37 C 145.06 173.27 140.79 174.11 137.23 175.66 C 137.22 171.78 137.55 167.88 137.15 164.01 C 136.03 162.48 133.43 162.87 132.63 164.52 M 161.38 165.44 C 159.47 166.50 159.43 169.54 161.31 170.64 C 163.36 172.25 166.97 170.70 166.82 167.99 C 166.85 165.39 163.36 163.93 161.38 165.44 M 175.63 174.13 C 174.11 174.12 172.59 174.11 171.08 174.26 C 168.70 174.62 168.15 178.52 170.36 179.48 C 172.13 179.98 173.99 180.09 175.82 180.34 C 176.21 185.60 176.13 190.88 176.19 196.15 C 175.91 199.28 181.15 199.99 181.85 196.97 C 182.91 191.37 181.87 185.62 181.88 179.96 C 183.80 179.85 185.75 179.95 187.64 179.52 C 189.66 178.63 189.73 175.22 187.58 174.47 C 185.75 174.00 183.83 174.17 181.96 174.08 C 181.70 171.54 181.92 166.75 178.11 167.18 C 174.62 167.58 175.68 171.71 175.63 174.13 M 160.46 175.46 L 159.94 176.10 C 159.14 182.65 159.02 189.32 159.46 195.91 C 159.49 199.18 165.22 199.25 165.26 195.98 C 165.34 189.98 165.29 183.97 165.63 177.98 C 166.26 175.14 162.29 173.36 160.46 175.46 Z" />
<path fill="#b9eddd" opacity="1.00" d=" M 166.33 137.98 C 168.51 134.77 170.69 131.56 172.83 128.33 C 172.84 131.54 172.84 134.76 172.84 137.98 C 170.67 137.98 168.50 137.98 166.33 137.98 Z" />
<path fill="#b9eddd" opacity="1.00" d=" M 137.66 139.00 C 140.51 137.52 143.96 136.40 147.04 137.94 C 149.89 139.32 149.69 143.19 148.67 145.70 C 147.36 149.21 142.08 150.17 139.57 147.45 C 137.60 145.11 137.97 141.84 137.66 139.00 Z" />
<path fill="#b9eddd" opacity="1.00" d=" M 137.27 182.18 C 139.81 180.86 142.78 178.68 145.70 180.29 C 149.95 182.75 149.85 190.12 145.39 192.35 C 142.80 193.71 139.90 192.56 137.28 191.91 C 137.28 188.67 137.28 185.42 137.27 182.18 Z" />
</g>
<g id="#f98517ff">
<path fill="#f98517" opacity="1.00" d=" M 53.00 143.92 C 54.20 135.42 61.41 128.20 69.92 126.99 C 74.42 126.44 78.97 126.79 83.49 126.72 C 83.50 136.97 83.51 147.21 83.48 157.47 C 73.23 157.50 62.98 157.48 52.73 157.47 C 52.80 152.96 52.45 148.41 53.00 143.92 Z" />
<path fill="#f98517" opacity="1.00" d=" M 86.72 160.70 C 96.63 160.67 106.54 160.69 116.45 160.69 C 116.37 165.13 116.79 169.62 116.05 174.02 C 114.53 182.29 107.35 189.12 99.01 190.20 C 94.93 190.68 90.81 190.39 86.71 190.44 C 86.71 180.52 86.69 170.61 86.72 160.70 Z" />
</g>
<g id="#81bc06ff">
<path fill="#81bc06" opacity="1.00" d=" M 86.72 126.73 C 91.14 126.79 95.61 126.40 100.00 127.13 C 108.23 128.62 115.08 135.73 116.21 144.03 C 116.75 148.48 116.40 152.97 116.47 157.44 C 106.56 157.44 96.64 157.46 86.73 157.43 C 86.70 147.19 86.72 136.96 86.72 126.73 Z" />
</g>
<g id="#05a6f0ff">
<path fill="#05a6f0" opacity="1.00" d=" M 52.75 160.62 C 63.00 160.61 73.26 160.62 83.51 160.62 C 83.53 170.56 83.53 180.51 83.51 190.46 C 79.02 190.39 74.50 190.73 70.03 190.20 C 61.43 189.01 54.11 181.69 53.00 173.07 C 52.50 168.94 52.78 164.77 52.75 160.62 Z" />
</g>
</svg>
